<svg width="40" height="40" viewBox="0 0 16 16" shapeRendering="crispEdges" xmlns="http://www.w3.org/2000/svg" aria-hidden="true"><rect x="5" y="3" width="5" height="1" fill="#141413"/><rect x="4" y="4" width="1" height="1" fill="#141413"/><rect x="10" y="4" width="1" height="1" fill="#141413"/><rect x="3" y="5" width="1" height="1" fill="#141413"/><rect x="11" y="5" width="1" height="1" fill="#141413"/><rect x="2" y="6" width="1" height="2" fill="#141413"/><rect x="12" y="6" width="2" height="2" fill="#141413"/><rect x="1" y="8" width="1" height="2" fill="#141413"/><rect x="14" y="8" width="1" height="2" fill="#141413"/><rect x="2" y="10" width="12" height="1" fill="#141413"/><rect x="4" y="12" width="1" height="2" fill="#76a1fc"/><rect x="7" y="12" width="1" height="2" fill="#76a1fc"/><rect x="10" y="12" width="1" height="2" fill="#76a1fc"/><rect x="5" y="14" width="1" height="1" fill="#76a1fc"/><rect x="8" y="14" width="1" height="1" fill="#76a1fc"/><rect x="11" y="14" width="1" height="1" fill="#76a1fc"/></svg>