<svg width="40" height="40" viewBox="0 0 16 16" shapeRendering="crispEdges" xmlns="http://www.w3.org/2000/svg" aria-hidden="true"><rect x="5" y="1" width="6" height="1" fill="#141413"/><rect x="3" y="2" width="2" height="1" fill="#141413"/><rect x="11" y="2" width="2" height="1" fill="#141413"/><rect x="2" y="3" width="1" height="2" fill="#141413"/><rect x="13" y="3" width="1" height="2" fill="#141413"/><rect x="1" y="5" width="1" height="6" fill="#141413"/><rect x="14" y="5" width="1" height="6" fill="#141413"/><rect x="2" y="11" width="1" height="2" fill="#141413"/><rect x="13" y="11" width="1" height="2" fill="#141413"/><rect x="3" y="13" width="2" height="1" fill="#141413"/><rect x="11" y="13" width="2" height="1" fill="#141413"/><rect x="5" y="14" width="6" height="1" fill="#141413"/><rect x="6" y="4" width="4" height="1" fill="#76a1fc"/><rect x="5" y="5" width="1" height="1" fill="#76a1fc"/><rect x="10" y="5" width="1" height="1" fill="#76a1fc"/><rect x="5" y="10" width="1" height="1" fill="#76a1fc"/><rect x="10" y="10" width="1" height="1" fill="#76a1fc"/><rect x="6" y="11" width="4" height="1" fill="#76a1fc"/><rect x="6" y="5" width="4" height="1" fill="#141413"/><rect x="6" y="10" width="4" height="1" fill="#141413"/><rect x="5" y="6" width="1" height="4" fill="#141413"/><rect x="10" y="6" width="1" height="4" fill="#141413"/><rect x="6" y="6" width="4" height="4" fill="#76a1fc"/></svg>